<?xml version="1.0" standalone="no"?>
<!DOCTYPE svg PUBLIC "-//W3C//DTD SVG 20010904//EN"
 "http://www.w3.org/TR/2001/REC-SVG-20010904/DTD/svg10.dtd">
<svg version="1.0" xmlns="http://www.w3.org/2000/svg"
 width="201.000000pt" height="82.000000pt" viewBox="0 0 201.000000 82.000000"
 preserveAspectRatio="xMidYMid meet">
<metadata>
Created by potrace 1.16, written by Peter Selinger 2001-2019
</metadata>
<g transform="translate(0.000000,82.000000) scale(0.100000,-0.100000)"
fill="#000000" stroke="none">
<path d="M288 431 c-3 -154 -5 -182 -20 -198 -23 -25 -23 -33 0 -33 21 1 56
28 71 57 7 13 11 85 11 187 l0 166 -29 0 -30 0 -3 -179z"/>
<path d="M892 484 c-2 -67 -1 -72 21 -76 43 -8 57 1 57 38 0 19 5 34 10 34 6
0 10 -15 10 -34 l0 -34 115 0 c85 1 111 4 101 12 -8 6 -16 20 -19 31 -3 15 -5
12 -6 -8 -1 -34 -24 -32 -29 1 -5 30 -22 28 -22 -3 0 -14 -4 -25 -10 -25 -9 0
-14 40 -12 100 0 16 -1 18 -5 7 -3 -12 -11 -15 -27 -11 -32 8 -56 -19 -56 -62
0 -43 -18 -45 -22 -1 -4 43 -32 44 -36 0 -2 -17 -10 -34 -18 -37 -11 -4 -14 8
-16 62 l-2 67 -3 -62 c-2 -35 -8 -63 -13 -63 -5 0 -11 30 -13 68 l-3 67 -2
-71z"/>
</g>
</svg>
